<?xml version="1.0" encoding="UTF-8"?>
<!DOCTYPE svg PUBLIC "-//W3C//DTD SVG 1.1//EN" "http://www.w3.org/Graphics/SVG/1.1/DTD/svg11.dtd">
<!-- Creator: CorelDRAW X7 -->
<svg xmlns="http://www.w3.org/2000/svg" xml:space="preserve" width="14.0555mm" height="16.7744mm" version="1.1" style="shape-rendering:geometricPrecision; text-rendering:geometricPrecision; image-rendering:optimizeQuality; fill-rule:evenodd; clip-rule:evenodd"
viewBox="0 0 893 1066"
 xmlns:xlink="http://www.w3.org/1999/xlink">
 <defs>
  <style type="text/css">
   <![CDATA[
    .fil0 {fill:#5B76A7}
   ]]>
  </style>
 </defs>
 <g id="Capa_x0020_1">
  <metadata id="CorelCorpID_0Corel-Layer"/>
  <g id="_1648170681568">
   <path class="fil0" d="M363 861c10,-37 -56,-25 -90,-25 -54,0 -84,8 -107,-11 12,-28 35,-19 92,-19 37,0 75,0 113,0 58,-1 50,5 49,60 0,35 3,70 -4,102 -40,9 -89,4 -133,4 -85,0 -114,12 -114,-23 45,-26 276,20 218,-36 -12,-12 -102,-5 -124,-5 -65,0 -100,11 -96,-30 31,-22 139,-2 187,-14l9 -3zm-152 -137c-59,0 -46,-97 -71,-138 -6,-11 -119,-97 -107,-223 14,-149 130,-258 292,-244 193,16 285,266 182,398 -129,165 -226,92 -285,117 -3,56 118,32 151,23 23,-6 23,-15 49,-12 -5,100 -24,79 -211,79zm374 -353c0,-123 -79,-220 -172,-263 -160,-74 -365,16 -404,195 -20,93 -8,182 53,254 72,86 37,15 75,141 24,83 15,34 31,69 -46,33 -39,26 -39,120 0,48 -11,111 36,119 35,6 43,-8 64,18 12,16 20,32 40,38 67,21 91,-49 100,-53 64,-15 83,18 82,-70 -1,-210 9,-116 -35,-176 34,-40 19,-28 40,-100 29,-97 50,-60 105,-174 15,-30 24,-81 24,-118z"/>
   <path class="fil0" d="M555 1062c2,0 4,0 5,-2 0,-1 2,0 4,-1 26,-42 -9,-128 15,-175 68,-18 193,33 230,-110 20,-79 -8,-42 -16,-83 15,-15 35,-19 42,-31 7,-12 1,-29 7,-51 20,-12 40,-12 48,-34 20,-51 -68,-108 -68,-161 -1,-174 -25,-222 -137,-331 -71,-70 -215,-95 -309,-78 -56,10 -43,21 -42,36 26,13 34,-1 58,-4 129,-19 252,32 327,130 43,55 68,129 73,201 3,54 -17,56 16,108 14,22 44,59 47,86 -37,24 -43,-6 -49,57 -5,43 -35,28 -49,56 -20,41 19,46 21,77 1,27 -21,57 -35,69 -56,48 -124,6 -186,24 -30,9 -20,52 -20,83 0,33 2,69 -5,99 -78,16 -129,-20 -129,29 28,18 151,6 152,6z"/>
   <path class="fil0" d="M253 184c28,-7 60,-6 87,2 211,63 176,341 -7,379 -184,39 -299,-180 -197,-305 29,-35 61,-61 117,-76zm-189 203c24,232 276,275 397,141 37,-42 61,-93 59,-167 -6,-167 -194,-268 -334,-189 -75,42 -132,125 -122,215z"/>
  </g>
 </g>
</svg>
