<?xml version="1.0" encoding="UTF-8"?>
<!DOCTYPE svg PUBLIC "-//W3C//DTD SVG 1.1//EN" "http://www.w3.org/Graphics/SVG/1.1/DTD/svg11.dtd">
<!-- Creator: CorelDRAW X7 -->
<svg xmlns="http://www.w3.org/2000/svg" xml:space="preserve" width="9.3808mm" height="9.4015mm" version="1.1" style="shape-rendering:geometricPrecision; text-rendering:geometricPrecision; image-rendering:optimizeQuality; fill-rule:evenodd; clip-rule:evenodd"
viewBox="0 0 145 146"
 xmlns:xlink="http://www.w3.org/1999/xlink">
 <defs>
  <style type="text/css">
   <![CDATA[
    .fil0 {fill:#6BBE50}
   ]]>
  </style>
 </defs>
 <g id="Capa_x0020_1">
  <metadata id="CorelCorpID_0Corel-Layer"/>
  <path class="fil0" d="M76 140c-1,-3 -1,-25 0,-29 4,-2 22,-4 25,-2 1,3 -6,27 -12,30 -3,1 -10,2 -13,1zm-31 -31c1,-1 -2,0 2,-1 3,0 20,2 23,3 1,4 1,16 1,21 0,5 1,8 -3,9 -3,0 -9,-1 -11,-2 -4,-2 -6,-9 -8,-13 -1,-3 -2,-5 -3,-8l-1 -9zm53 26c0,-2 4,-10 5,-14 6,-16 -2,-12 18,-18 3,-1 12,-4 14,-4 2,8 -27,37 -37,36zm-87 -37c3,1 9,4 13,5 2,1 13,3 14,4l9 28c-6,0 -19,-10 -23,-14l-8 -10c-1,-3 -6,-9 -5,-13zm65 7c-1,-4 -1,-26 0,-29 2,-1 0,-1 2,-1 1,0 2,0 3,0l16 0c6,0 10,-3 8,15 -2,13 -1,13 -8,14 -3,1 -18,2 -21,1zm-6 -29c1,2 2,27 0,28 -2,2 -24,0 -27,-2 -2,-2 -4,-24 -2,-26 2,-2 25,-1 29,0zm-36 -1c1,2 2,2 2,5l2 21c-6,1 -13,-2 -18,-4 -4,-2 -12,-5 -13,-9 -5,-15 -1,-13 5,-13 7,0 15,0 22,0zm74 26c0,-2 2,-24 2,-25 4,-2 27,-1 30,0 1,2 0,10 -1,12 -1,4 -5,5 -8,7 -5,2 -17,7 -23,6zm-28 -30c-6,0 -5,-4 -4,-9 0,-24 -4,-23 14,-21 12,1 12,-1 14,11 3,23 5,19 -24,19zm-35 0c-6,0 -5,-4 -4,-8 0,-5 0,-7 1,-12 0,-4 0,-7 3,-9l23 -1c4,0 3,3 3,10 0,24 5,20 -26,20zm65 -27c3,1 7,2 9,3 18,6 19,6 21,16 1,10 3,8 -26,8 -8,0 -3,-4 -6,-19 0,-3 -2,-9 2,-8zm-105 26c-1,-3 0,-14 5,-16 4,-3 10,-5 15,-7 11,-3 14,-5 12,4 -2,5 0,14 -2,19 -4,1 -26,1 -30,0zm71 -35c0,-1 0,1 0,-1l0 -21c0,-5 -2,-8 3,-8 10,1 12,2 15,8 2,5 8,20 7,24 -3,1 -23,-1 -25,-2zm-10 -29c7,-1 5,1 5,9 -1,25 1,20 -9,21 -4,0 -9,1 -12,1 -8,1 -6,-2 -4,-8 1,-3 2,-6 3,-10 6,-15 7,-12 17,-13zm55 36c-21,-5 -11,1 -21,-25 -1,-4 -3,-4 -1,-7 2,0 9,5 12,6 2,2 3,3 5,5 1,1 3,2 5,4l8 10c2,3 6,8 6,12 -4,0 -10,-3 -14,-5zm-110 5c-1,-11 25,-36 36,-36 0,2 -4,10 -5,13 -5,18 1,13 -18,19 -5,1 -10,4 -13,4zm53 -46c-10,2 -20,4 -27,9 -7,4 -15,10 -20,16 -18,23 -24,55 -7,83 9,16 22,27 39,33 50,16 101,-21 96,-78 -1,-10 -5,-18 -9,-27 -12,-22 -43,-41 -72,-36z"/>
 </g>
</svg>
