<?xml version="1.0" encoding="UTF-8"?>
<!DOCTYPE svg PUBLIC "-//W3C//DTD SVG 1.1//EN" "http://www.w3.org/Graphics/SVG/1.1/DTD/svg11.dtd">
<!-- Creator: CorelDRAW X7 -->
<svg xmlns="http://www.w3.org/2000/svg" xml:space="preserve" width="13.9556mm" height="17.9785mm" version="1.1" style="shape-rendering:geometricPrecision; text-rendering:geometricPrecision; image-rendering:optimizeQuality; fill-rule:evenodd; clip-rule:evenodd"
viewBox="0 0 876 1129"
 xmlns:xlink="http://www.w3.org/1999/xlink">
 <defs>
  <style type="text/css">
   <![CDATA[
    .fil0 {fill:#5B76A7}
   ]]>
  </style>
 </defs>
 <g id="Capa_x0020_1">
  <metadata id="CorelCorpID_0Corel-Layer"/>
  <path class="fil0" d="M766 1051c-66,78 -229,33 -228,-3 1,-18 -3,3 9,-16 26,-42 -22,-120 57,-127 191,-17 131,50 146,115 5,24 10,13 16,31zm-148 -270c13,-8 26,-21 46,-13 12,6 29,19 21,43 -11,31 -72,39 -67,-30zm-105 246c-21,-5 -17,-6 -35,-42 -29,-58 -30,-113 1,-169 111,-200 395,-99 360,125 -5,34 -27,80 -52,90 -11,-110 16,-135 -97,-163 5,-26 14,-15 24,-37 42,-96 -113,-147 -133,-42 -8,43 27,55 33,79 -41,11 -69,9 -86,47 -16,32 2,86 -15,112zm-403 -660c19,10 58,77 158,84 247,15 253,-227 253,-227 2,-5 -3,-20 38,-4 51,20 40,16 53,70 6,24 4,23 23,32 11,-8 17,-20 19,-36 0,-2 1,-2 1,-3 60,10 212,233 126,426 -20,-5 -39,-17 -60,-23 -144,-41 -278,44 -299,199 -4,32 10,50 2,74 -29,17 -113,-9 -144,-20 -94,-36 -22,-96 -82,-94 -8,14 -1,5 -9,26l-3 8c-27,-11 -70,-61 -90,-93 -124,-200 -24,-410 14,-419zm66 8c11,-20 20,-10 21,-46 2,-81 -16,-101 96,-101 109,0 94,15 97,101 1,34 8,25 20,45 -32,24 -57,46 -117,46 -71,0 -102,-37 -117,-45zm102 -282c36,-20 71,34 36,58 -42,30 -81,-34 -36,-58zm-22 101c-34,5 -49,3 -70,22 -40,36 0,151 -37,135 -8,-3 -30,-42 -34,-53 -77,-195 179,-368 326,-194 79,93 37,238 -17,247 1,-111 8,-143 -94,-157 6,-27 41,-28 30,-89 -12,-66 -121,-71 -137,6 -10,51 31,56 33,83zm425 47c14,-13 18,-8 33,-21 -7,-46 -38,-8 -84,-12l-113 -42c-20,-17 -11,-70 -94,-125 -57,-39 -82,-41 -145,-41 -85,0 -174,68 -200,155 -20,67 -13,82 2,147 7,30 -7,38 -19,59 -85,145 -80,303 8,447 49,81 91,87 98,119 -26,11 -43,3 -38,36 35,10 82,-16 114,-3 39,14 56,25 101,32 35,5 88,-4 109,23 24,32 29,44 60,68 104,81 278,57 344,-84 29,-63 25,-149 -7,-207 -20,-37 -46,-40 -29,-89 43,-124 13,-254 -51,-357 -32,-52 -81,-85 -89,-105z"/>
 </g>
</svg>
