<?xml version="1.0" encoding="UTF-8"?>
<!DOCTYPE svg PUBLIC "-//W3C//DTD SVG 1.1//EN" "http://www.w3.org/Graphics/SVG/1.1/DTD/svg11.dtd">
<!-- Creator: CorelDRAW X7 -->
<svg xmlns="http://www.w3.org/2000/svg" xml:space="preserve" width="11.4706mm" height="7.9287mm" version="1.1" style="shape-rendering:geometricPrecision; text-rendering:geometricPrecision; image-rendering:optimizeQuality; fill-rule:evenodd; clip-rule:evenodd"
viewBox="0 0 41 28"
 xmlns:xlink="http://www.w3.org/1999/xlink">
 <defs>
  <style type="text/css">
   <![CDATA[
    .fil0 {fill:#71BF4F}
   ]]>
  </style>
 </defs>
 <g id="Capa_x0020_1">
  <metadata id="CorelCorpID_0Corel-Layer"/>
  <g id="_1648316469360">
   <path class="fil0" d="M40 25c-2,0 -2,0 -2,-1l-11 -11c-1,0 -1,-1 0,-1l9 -7c1,-1 3,-2 3,-2 1,1 1,20 1,22zm-38 -22c0,0 6,4 7,5 1,0 2,2 3,2 4,3 4,1 -4,10 -1,1 -2,2 -3,3 -1,0 -3,2 -3,2 -1,-1 -1,-14 -1,-17 0,-1 0,-5 1,-5zm36 -1c-1,1 -2,1 -3,1l-10 9c-1,0 -4,3 -5,2 0,0 -7,-5 -8,-6l-5 -3c-1,-1 -3,-3 -4,-3 2,-1 26,-1 30,-1 1,0 2,0 3,0 0,0 0,0 1,0l1 1zm-38 26c1,0 9,0 10,0 0,0 0,0 0,0 0,-1 0,-1 0,-1 -1,-1 -8,1 -7,-1 1,0 1,-1 1,-1 1,0 1,-1 2,-2 1,-1 10,-9 10,-9 2,0 3,2 4,2 2,0 3,-2 5,-2 0,0 10,10 12,12 1,0 1,0 1,1 -2,0 -7,0 -9,0 -1,0 -1,1 0,1 0,0 11,0 12,0 0,-1 0,-25 0,-28 -2,0 -33,0 -39,0 -2,0 -2,0 -2,2 0,4 0,25 0,26z"/>
   <path class="fil0" d="M20 27c0,2 1,1 3,1 3,0 2,0 2,-1 -1,0 -4,0 -5,0z"/>
   <path class="fil0" d="M13 27c0,1 0,0 0,1 0,0 0,0 0,0 0,0 4,1 5,0 0,-1 0,0 0,-1 -1,0 -4,0 -5,0z"/>
  </g>
 </g>
</svg>
