<?xml version="1.0" encoding="UTF-8"?>
<!DOCTYPE svg PUBLIC "-//W3C//DTD SVG 1.1//EN" "http://www.w3.org/Graphics/SVG/1.1/DTD/svg11.dtd">
<!-- Creator: CorelDRAW X7 -->
<svg xmlns="http://www.w3.org/2000/svg" xml:space="preserve" width="13.7304mm" height="17.5404mm" version="1.1" style="shape-rendering:geometricPrecision; text-rendering:geometricPrecision; image-rendering:optimizeQuality; fill-rule:evenodd; clip-rule:evenodd"
viewBox="0 0 840 1073"
 xmlns:xlink="http://www.w3.org/1999/xlink">
 <defs>
  <style type="text/css">
   <![CDATA[
    .fil0 {fill:#71BF4F}
   ]]>
  </style>
 </defs>
 <g id="Capa_x0020_1">
  <metadata id="CorelCorpID_0Corel-Layer"/>
  <g id="_1648467143184">
   <path class="fil0" d="M682 814c36,-7 52,27 74,49 26,24 59,41 37,76 -21,0 -26,-6 -39,-19l-65 -65c-20,-18 -16,-17 -7,-41zm2 -68c-42,128 -228,93 -205,-57 13,-79 148,-111 192,-28 14,28 25,49 13,85zm-484 -137c-1,37 24,25 112,25l128 2c2,1 3,2 4,2 14,6 10,17 7,28 -14,43 -52,27 -144,28 -67,0 -101,-11 -108,22 20,23 75,13 108,13 44,0 87,0 131,0 25,78 26,61 -196,59 -27,0 -40,-4 -43,23 38,35 239,-11 294,16 19,10 25,20 50,25 29,7 45,2 74,1 48,-3 65,62 43,101 -17,9 -518,10 -538,2 -17,-13 -9,-158 -9,-180l0 -378c0,-153 -13,-146 51,-144l12 35c39,8 401,10 419,1 20,-10 4,-6 20,-26 8,-9 15,-14 34,-10 26,7 18,46 18,70 -2,342 14,264 -63,255 -29,-3 -56,0 -78,9 -30,13 -27,17 -65,17 -53,0 -234,-5 -261,4zm8 -354c-24,-52 14,-43 54,-43 66,0 278,-5 313,3 13,49 -11,43 -54,43 -61,-1 -287,5 -313,-3zm-120 730c21,8 469,3 572,3 68,0 24,-19 44,-58 14,-5 37,21 40,40 6,29 9,64 -25,64 -116,0 -603,5 -678,-1 -16,-26 -10,-58 -10,-103l0 -685c0,-93 -16,-82 112,-82 7,0 18,5 25,7l-1 47c-76,27 -87,-57 -87,122 0,73 0,146 0,218 0,73 -9,391 8,428zm120 -869c20,-12 51,-4 75,-6 27,-2 26,-15 38,-35 17,-29 54,-54 97,-36 57,26 32,69 82,71 19,1 57,-6 71,5 15,10 10,44 0,56 -19,11 -342,9 -365,1 -5,-15 -8,-40 2,-56zm487 112c-30,-12 -36,-1 -65,-7 -23,-4 -29,-35 -15,-51 16,-18 111,-6 130,-2l0 181c1,23 4,28 28,23 11,-20 9,-194 3,-229 -14,-30 -125,-1 -155,-17 -13,-7 -11,-15 -18,-29 -21,-41 -77,-8 -105,-28 -11,-8 -29,-38 -41,-48 -33,-27 -97,-29 -138,3 -19,14 -27,41 -41,47 -24,11 -57,-3 -83,7 -20,7 -24,33 -33,52 -194,5 -160,-55 -160,239 0,109 -5,667 5,696 23,9 722,11 762,2 29,-18 -13,-69 25,-92 11,-7 18,-7 32,-23 48,-58 -42,-80 -47,-142 -5,-61 10,-251 -10,-271 -34,1 -24,52 -24,113 0,37 7,101 -3,131 -9,2 -19,0 -24,-11 -4,-11 0,-23 1,-32 9,-74 -20,-69 -19,-133 0,-74 5,-348 -5,-379z"/>
   <path class="fil0" d="M196 438c18,23 55,16 91,16l209 0c24,0 86,9 82,-20 -3,-25 -65,-16 -87,-16l-209 0c-44,0 -75,-8 -86,20z"/>
   <path class="fil0" d="M199 532c23,21 155,11 192,11 35,0 70,0 105,0 39,0 75,11 83,-21 -24,-22 -150,-12 -193,-12 -34,0 -69,0 -104,0 -29,0 -77,-11 -83,22z"/>
   <path class="fil0" d="M774 414c-50,-8 -25,83 -24,83 23,10 28,1 29,-24 0,-19 1,-46 -5,-59z"/>
  </g>
 </g>
</svg>
