<?xml version="1.0" encoding="UTF-8"?>
<!DOCTYPE svg PUBLIC "-//W3C//DTD SVG 1.1//EN" "http://www.w3.org/Graphics/SVG/1.1/DTD/svg11.dtd">
<!-- Creator: CorelDRAW X7 -->
<svg xmlns="http://www.w3.org/2000/svg" xml:space="preserve" width="17.6726mm" height="13.875mm" version="1.1" style="shape-rendering:geometricPrecision; text-rendering:geometricPrecision; image-rendering:optimizeQuality; fill-rule:evenodd; clip-rule:evenodd"
viewBox="0 0 1688 1325"
 xmlns:xlink="http://www.w3.org/1999/xlink">
 <defs>
  <style type="text/css">
   <![CDATA[
    .fil0 {fill:#71BF4F}
   ]]>
  </style>
 </defs>
 <g id="Capa_x0020_1">
  <metadata id="CorelCorpID_0Corel-Layer"/>
  <g id="_1648268517168">
   <path class="fil0" d="M605 709c-18,-67 -36,-350 88,-350l287 0c51,0 97,58 98,130 1,67 12,172 -13,217 -35,0 -40,1 -43,-31 -7,-63 20,-155 -27,-189 -35,15 -29,29 -29,73 1,124 7,663 -4,702 -31,12 -62,17 -90,-4 -29,-63 13,-317 -18,-387l-30 0c-35,75 13,322 -13,387 -27,20 -68,19 -95,0 -12,-14 -8,-594 -9,-706 -1,-45 4,-55 -39,-66 -13,63 10,191 -29,228l-34 -4zm-257 -223c0,-36 -7,-69 19,-90 23,-18 53,-11 72,6 51,49 -1,114 -91,84zm991 -2c-42,12 -96,20 -101,-42 -5,-72 124,-103 101,42zm-201 -14c83,-18 33,65 137,73 50,4 51,0 74,-33 16,-22 15,-13 30,-25 45,-38 13,-146 -73,-153 -109,-10 -96,62 -136,78 -36,14 -57,-13 -70,-33 -58,-86 -123,-68 -244,-74 -334,-15 -252,99 -318,111 -52,10 -46,-96 -155,-81 -65,8 -104,73 -81,143 21,26 11,6 28,20 29,25 16,52 61,52 108,0 84,-66 141,-82 33,73 -18,280 29,372 46,2 56,-7 92,16 11,27 12,166 2,192l-22 5c-9,0 -24,-8 -71,-8 -38,0 -74,2 -111,-2 -37,-56 -18,-46 -43,-46 -23,0 -24,12 -22,34 0,4 7,25 8,30 10,57 -53,104 -107,68 -29,-19 -46,-68 -14,-104 30,-34 62,-18 101,-36 -10,-40 -12,-48 -68,-41 -168,23 -114,307 72,236 67,-26 38,-87 113,-87 35,0 105,7 131,-4 8,-3 30,-29 36,12 1,8 2,14 2,21l-6 132c-53,42 -149,-27 -145,53 48,27 282,11 355,11 87,0 269,21 329,-21 -46,-76 -171,19 -171,-66l0 -348c0,-74 53,-29 98,-55 35,-52 -8,-280 18,-360z"/>
   <path class="fil0" d="M313 708c-38,-24 -35,-90 -112,-114 -101,-31 -185,36 -199,120 -30,185 236,207 216,135 -10,-36 -52,-11 -90,-18 -141,-28 -59,-246 69,-179 67,36 45,119 53,147 72,7 17,-59 132,-36 22,36 12,76 47,76 88,0 91,7 91,-38 -27,-22 -40,-7 -56,-21 -14,-11 -14,-43 -18,-59 -35,-11 -99,-2 -133,-13z"/>
   <path class="fil0" d="M1442 796c22,-34 -18,-65 24,-123 26,-36 77,-46 117,-28 87,40 55,184 -30,184 -44,0 -56,-12 -70,2 -34,33 31,78 113,42 110,-48 118,-191 40,-256 -32,-26 -56,-31 -106,-29 -101,3 -103,57 -144,118 -33,1 -57,4 -85,3 -29,-1 -44,0 -53,24 -18,49 12,37 -42,51 -30,8 -42,10 -28,52 170,13 86,-41 130,-72 28,-9 60,-12 83,4 27,20 6,36 51,28z"/>
   <path class="fil0" d="M222 77c74,-20 104,113 18,129 -40,7 -76,-18 -82,-52 -8,-46 25,-67 64,-77zm125 35c-25,-63 -39,-51 -95,-73 -56,-21 -76,-18 -113,20 -67,72 -35,175 57,198 142,36 122,-131 220,-89 37,15 14,20 22,65 6,28 18,29 45,29 54,1 121,11 122,-33 -27,-39 -68,-6 -115,-27l-11 -80c-39,-14 -79,-9 -132,-10z"/>
   <path class="fil0" d="M1439 73c52,-35 144,82 55,125 -80,38 -145,-65 -55,-125zm-181 95c29,-13 75,-7 94,19 22,32 18,46 63,62 219,75 212,-296 20,-212 -39,17 -56,-13 -94,75 -65,2 -82,-2 -137,13 -6,52 13,79 -39,83 -51,4 -46,-17 -85,26 25,46 129,31 167,18l11 -84z"/>
   <path class="fil0" d="M1309 1105c-24,-41 4,-64 -4,-110 -53,-6 -42,11 -68,44 -77,1 -141,-14 -186,24 41,81 156,-13 204,58 81,118 209,73 229,-26 31,-148 -168,-201 -161,-112 36,20 71,2 100,40 24,32 15,78 -12,99 -35,25 -81,17 -102,-17z"/>
   <path class="fil0" d="M796 63c121,-56 165,66 90,146 -73,78 -177,-106 -90,-146zm-85 70c5,36 32,112 74,133 0,0 48,17 51,17 114,16 178,-193 117,-248 -57,-51 -266,-66 -242,98z"/>
  </g>
 </g>
</svg>
