<?xml version="1.0" encoding="UTF-8"?>
<!DOCTYPE svg PUBLIC "-//W3C//DTD SVG 1.1//EN" "http://www.w3.org/Graphics/SVG/1.1/DTD/svg11.dtd">
<!-- Creator: CorelDRAW X7 -->
<svg xmlns="http://www.w3.org/2000/svg" xml:space="preserve" width="5.4906mm" height="5.4914mm" version="1.1" style="shape-rendering:geometricPrecision; text-rendering:geometricPrecision; image-rendering:optimizeQuality; fill-rule:evenodd; clip-rule:evenodd"
viewBox="0 0 9 9"
 xmlns:xlink="http://www.w3.org/1999/xlink">
 <defs>
  <style type="text/css">
   <![CDATA[
    .fil0 {fill:#71BF4F}
   ]]>
  </style>
 </defs>
 <g id="Capa_x0020_1">
  <metadata id="CorelCorpID_0Corel-Layer"/>
  <path class="fil0" d="M2 3c0,0 1,0 1,0 0,0 0,0 0,0 0,1 0,2 0,3 0,0 0,0 0,0 0,0 -1,0 -1,0 0,0 0,0 0,0l0 -1c0,-1 0,-1 0,-2zm3 1c0,0 0,0 0,0 0,0 0,0 0,0 0,-1 0,-1 0,-1 0,0 1,0 1,0 0,0 0,0 0,0l0 0c0,0 0,0 0,0l0 1c1,0 1,0 1,0l0 2c0,0 0,0 0,0l-1 0c0,0 0,0 0,0l0 -1c0,-1 0,0 0,-1 0,0 0,0 0,0 -1,0 -1,0 -1,0 0,0 0,0 0,1 0,0 0,0 0,0 0,0 0,0 0,1 0,0 0,0 0,0 0,0 -1,0 -1,0 0,0 0,0 0,0l0 -3c0,0 0,0 0,0l1 0c0,0 0,0 0,0 0,0 0,1 0,1zm-2 -2c0,1 0,1 0,1 0,0 0,0 0,0 0,0 0,0 0,0 -1,0 -1,0 -1,0 0,0 0,0 0,0 0,0 0,0 0,0 0,0 0,0 0,0 0,-1 0,-1 0,-1 0,0 0,0 0,0 1,0 1,0 1,0 0,0 0,0 0,0zm-3 2c0,0 0,1 0,1 0,0 0,0 0,0 0,0 0,0 0,0 0,0 0,0 0,0 0,0 0,1 0,1l0 0c0,0 0,0 0,0l0 0c0,0 1,0 1,1l0 0c0,0 0,0 0,0 0,0 0,0 0,0 0,0 0,0 0,1l1 0c0,0 0,0 0,0l0 0c0,0 0,0 0,0 0,0 0,0 0,0 0,0 0,0 0,0l0 0c0,0 0,0 0,0 0,0 0,0 0,0 1,0 1,0 1,0l0 0c0,0 0,0 0,0 0,1 0,1 1,1 0,0 0,0 0,0 0,0 0,0 1,0 0,0 0,0 0,0 0,0 0,0 0,0 0,0 0,0 0,0l1 -1c0,0 0,0 0,0 0,0 0,0 1,0l0 0c0,0 0,0 0,0l0 0c0,0 0,0 0,0 0,0 0,0 0,0l0 -1c0,0 0,0 0,0l0 0c0,0 0,0 1,0 0,0 0,0 0,0 0,0 0,0 0,-1 0,0 0,0 0,0 0,0 0,0 1,-1l0 0c0,0 0,0 0,0 0,0 0,0 0,0l0 0c0,-1 0,-1 0,-1 0,0 0,0 0,0 0,-1 0,-1 0,-1 0,0 0,0 0,0l-1 0c0,0 0,0 0,0 0,0 0,0 0,0l0 -1c0,0 0,0 0,0 0,0 0,0 0,0 0,0 0,0 0,0 0,0 0,0 0,0 0,0 0,0 -1,-1 0,0 0,0 0,0l0 0c0,0 0,0 0,0 0,0 0,0 0,0 0,0 0,0 0,0l-1 0c0,0 0,0 0,-1l0 0c0,0 0,0 0,0l0 0c0,0 0,0 0,0l-1 0c0,0 0,0 0,0 0,0 0,0 0,0 0,0 0,0 0,0l0 0c0,0 -1,0 -1,0 0,0 0,0 0,0l-1 0c0,0 0,0 0,0 0,0 0,0 0,0 0,0 0,0 0,0 0,0 0,0 0,0l-1 0c0,0 0,0 0,0 0,1 0,1 0,1l0 0c0,0 0,0 0,0l0 0c0,0 0,0 0,0 -1,0 -1,0 -1,0 0,0 0,0 0,0 0,1 0,1 0,1 0,0 0,0 0,0l0 0c0,0 -1,1 -1,1l0 0c0,0 0,0 0,0 0,0 0,0 0,0l0 1c0,0 0,0 0,0l0 0z"/>
 </g>
</svg>
