<?xml version="1.0" encoding="UTF-8"?>
<!DOCTYPE svg PUBLIC "-//W3C//DTD SVG 1.1//EN" "http://www.w3.org/Graphics/SVG/1.1/DTD/svg11.dtd">
<!-- Creator: CorelDRAW X7 -->
<svg xmlns="http://www.w3.org/2000/svg" xml:space="preserve" width="7.4234mm" height="10.8495mm" version="1.1" style="shape-rendering:geometricPrecision; text-rendering:geometricPrecision; image-rendering:optimizeQuality; fill-rule:evenodd; clip-rule:evenodd"
viewBox="0 0 80 117"
 xmlns:xlink="http://www.w3.org/1999/xlink">
 <defs>
  <style type="text/css">
   <![CDATA[
    .fil0 {fill:#6BBE50}
   ]]>
  </style>
 </defs>
 <g id="Capa_x0020_1">
  <metadata id="CorelCorpID_0Corel-Layer"/>
  <g id="_1648467187600">
   <path class="fil0" d="M22 109c-1,-3 3,-2 6,-2 4,0 7,0 10,0 4,0 6,1 7,-2 -5,-3 -22,0 -23,-2 -1,-1 -1,-3 -1,-4 1,-3 6,-2 8,-2 35,0 30,-2 30,9 0,7 -4,7 -12,7 -9,0 -24,3 -25,-4zm5 -16c-1,-2 -2,-7 -1,-9 3,-1 24,-1 28,-1 1,3 0,7 -1,10 -3,0 -24,0 -26,0zm10 -89c6,-1 12,1 16,2 12,5 23,18 23,33 0,6 0,10 -3,15 -5,11 -9,11 -15,22 -1,3 -2,4 -6,4l-27 -1c-2,0 -3,-3 -4,-5 -2,-4 -5,-7 -8,-10 -9,-9 -12,-24 -7,-36 2,-5 3,-8 7,-12 2,-3 6,-5 10,-8 7,-4 9,-3 14,-4zm-37 36c0,7 3,16 6,21 4,7 12,12 15,23 2,6 3,8 0,10 -4,2 -4,5 -4,9 0,17 9,14 26,14 8,0 17,1 19,-6 1,-3 1,-11 0,-13 0,-7 -5,-2 -5,-8 0,-7 7,-18 11,-22 8,-8 14,-19 12,-32 -5,-33 -39,-45 -62,-29 -10,6 -18,17 -18,33z"/>
   <path class="fil0" d="M24 62c2,-5 -2,-13 2,-19 6,-9 10,2 19,-2 2,-1 3,-2 4,-2 11,3 2,26 9,23 1,-3 1,-9 1,-12 0,-5 0,-7 -3,-10 -7,-10 -11,-1 -18,-2 -4,-1 -4,-4 -9,-2 -3,1 -5,3 -6,6 -2,3 -2,12 -2,17 0,3 0,3 3,3z"/>
   <path class="fil0" d="M37 15c8,-3 12,8 5,11 -6,3 -12,-7 -5,-11zm-1 -3c-2,1 -4,2 -5,4 -1,3 -1,6 0,9 2,4 8,7 13,5 3,-2 3,-3 5,-5 4,-8 -4,-17 -13,-13z"/>
   <path class="fil0" d="M46 50c0,2 0,5 0,7 -1,4 -1,5 3,5 1,-2 1,-5 0,-7 0,-2 0,-7 -3,-5z"/>
   <path class="fil0" d="M33 62c2,-3 1,-4 1,-7 0,-3 1,-5 -2,-5 -2,2 -2,4 -2,7 0,3 0,5 3,5z"/>
   <path class="fil0" d="M63 25c0,7 9,10 5,2 -2,-2 -2,-3 -4,-4l-1 2z"/>
   <path class="fil0" d="M69 36c-3,1 -2,8 1,8 2,-1 2,-10 -1,-8z"/>
   <path class="fil0" d="M61 21l0 -2c0,-1 -3,-4 -6,-3 -2,3 4,6 6,5z"/>
  </g>
 </g>
</svg>
