<?xml version="1.0" encoding="UTF-8"?>
<!DOCTYPE svg PUBLIC "-//W3C//DTD SVG 1.1//EN" "http://www.w3.org/Graphics/SVG/1.1/DTD/svg11.dtd">
<!-- Creator: CorelDRAW X7 -->
<svg xmlns="http://www.w3.org/2000/svg" xml:space="preserve" width="14.3654mm" height="17.0712mm" version="1.1" style="shape-rendering:geometricPrecision; text-rendering:geometricPrecision; image-rendering:optimizeQuality; fill-rule:evenodd; clip-rule:evenodd"
viewBox="0 0 946 1124"
 xmlns:xlink="http://www.w3.org/1999/xlink">
 <defs>
  <style type="text/css">
   <![CDATA[
    .fil0 {fill:#71BF4F}
   ]]>
  </style>
 </defs>
 <g id="Capa_x0020_1">
  <metadata id="CorelCorpID_0Corel-Layer"/>
  <g id="_1648467166160">
   <path class="fil0" d="M755 775c200,0 204,311 0,314 -213,3 -217,-314 0,-314zm-713 -664c26,-9 260,-10 310,-5 47,4 110,-1 162,-1 57,0 115,-1 172,-1 33,0 46,0 49,36 6,85 0,584 -7,593 -27,19 -113,10 -155,10l-401 0c-33,-1 -51,-5 -59,23 17,24 74,16 113,16l320 0c10,0 23,-1 33,0l29 5c-3,23 -34,57 -35,57 -16,10 -309,5 -369,5 -43,0 -92,-15 -90,28 39,9 270,4 342,4 33,0 99,-15 104,23l-8 38c-46,27 -381,-10 -440,15 5,22 6,25 33,26 77,3 389,-9 413,4 7,6 46,75 47,84 -29,15 -532,15 -561,0 -15,-24 -6,-85 -6,-118 0,-113 -6,-805 4,-842zm724 543l0 -514c1,-36 12,-47 -13,-63 -18,-10 -441,-4 -522,-4 -21,0 -75,3 -91,0 -35,-7 -25,-36 11,-36l631 0c45,0 33,35 33,72 0,32 0,64 0,96l0 395c0,32 0,65 0,97 0,34 -5,58 -39,37 -15,-14 -10,-60 -10,-80zm-756 455c61,13 511,3 644,5 33,0 50,8 80,10 113,6 192,-63 209,-160 10,-57 -5,-103 -31,-141 -58,-86 -62,-17 -62,-121l0 -556c0,-122 15,-144 -36,-144 -103,0 -675,-6 -728,4 -3,13 -3,18 -4,33 -5,63 -41,17 -68,39 -22,20 -11,87 -11,121 0,161 -9,864 7,910z"/>
   <path class="fil0" d="M652 673l1 -24c-23,-12 -451,-5 -513,-5 -30,0 -35,28 -5,35l224 0c54,0 258,8 293,-6z"/>
   <path class="fil0" d="M114 569c38,18 207,8 267,8 51,0 241,6 272,-4 7,-44 -30,-30 -117,-31l-375 0c-33,0 -43,-4 -47,27z"/>
   <path class="fil0" d="M362 323c-78,13 -133,-16 -133,112 0,20 -8,62 15,67 39,9 4,-91 33,-122 29,-32 95,-21 147,-22 145,-1 55,126 99,143 23,9 21,-34 20,-56 0,-62 -6,-92 -49,-113 -28,-14 -99,-15 -132,-9z"/>
   <path class="fil0" d="M373 179c51,-21 88,64 32,83 -61,22 -94,-58 -32,-83zm-11 -36c-98,22 -71,185 48,155 96,-24 72,-181 -48,-155z"/>
   <path class="fil0" d="M655 901c-3,5 -8,-8 -4,17l24 40c7,9 12,14 19,24 24,38 35,53 72,9l77 -100c15,-31 -9,-35 -30,-19 -34,27 -46,76 -80,94 -37,-23 -49,-89 -78,-65z"/>
   <path class="fil0" d="M333 445c-40,-1 -29,51 -14,57 28,10 31,-37 14,-57z"/>
   <path class="fil0" d="M436 502c18,1 22,4 25,-14 3,-14 1,-32 -5,-43 -41,-3 -28,40 -20,57z"/>
  </g>
 </g>
</svg>
