<?xml version="1.0" encoding="UTF-8"?>
<!DOCTYPE svg PUBLIC "-//W3C//DTD SVG 1.1//EN" "http://www.w3.org/Graphics/SVG/1.1/DTD/svg11.dtd">
<!-- Creator: CorelDRAW X7 -->
<svg xmlns="http://www.w3.org/2000/svg" xml:space="preserve" width="10.7559mm" height="10.7822mm" version="1.1" style="shape-rendering:geometricPrecision; text-rendering:geometricPrecision; image-rendering:optimizeQuality; fill-rule:evenodd; clip-rule:evenodd"
viewBox="0 0 60 60"
 xmlns:xlink="http://www.w3.org/1999/xlink">
 <defs>
  <style type="text/css">
   <![CDATA[
    .fil0 {fill:#6BBE50}
   ]]>
  </style>
 </defs>
 <g id="Capa_x0020_1">
  <metadata id="CorelCorpID_0Corel-Layer"/>
  <g id="_1648388614464">
   <path class="fil0" d="M43 32c0,0 3,0 3,0 1,1 1,2 1,3 1,1 2,1 3,1 1,0 1,-1 3,-1 0,0 0,0 1,1 3,3 -3,2 0,6 1,2 4,-2 4,3 -1,4 -3,0 -4,3 -2,4 2,3 0,5l-2 2c-1,0 -1,-1 -2,-1 -1,-1 -3,0 -3,1 0,2 1,3 -2,3 -5,0 -1,-2 -4,-4 -4,-2 -2,4 -7,-1 1,-2 3,-2 2,-4 -1,-2 -2,-2 -3,-2 -1,0 -1,-1 -1,-2 0,-4 3,-1 4,-4 1,-2 -1,-2 -2,-4 6,-6 3,2 8,-2l1 -3zm-6 -25c1,-1 0,-1 1,-1 2,-2 1,-3 -1,-2 -6,3 -5,3 -2,6 1,1 1,3 3,2 0,-1 0,0 0,-1 -1,-1 -1,-1 -1,-2 3,0 10,6 12,10 2,3 4,9 3,12 0,1 -2,3 -3,3 -1,-1 0,-2 -1,-3 0,-2 -6,-1 -7,-1 -1,1 0,2 -1,4 -2,0 0,-1 -3,-2 -1,0 -2,1 -3,2 -5,5 -1,3 0,7 -2,0 -3,-1 -4,0 -1,2 0,6 0,8 1,0 2,0 3,0 1,2 -1,2 -1,4 0,1 1,2 2,2 5,6 3,1 6,1 1,1 0,2 1,3 0,1 7,0 7,0l1 -2c0,0 0,0 0,-1 0,0 0,0 0,0 2,0 2,1 3,2 1,-1 5,-4 5,-5 1,-2 -3,-4 0,-4 1,0 2,1 3,-2 0,-1 0,-3 0,-4 0,-3 -1,-2 -4,-2 -1,-2 1,-2 1,-4 0,-1 -1,-2 -2,-3 -2,-2 -1,-3 -1,-6 -1,-8 -5,-15 -13,-19 0,-1 -1,-1 -2,-1l-2 -1z"/>
   <path class="fil0" d="M17 4c0,1 0,2 3,3 1,-1 2,-2 2,-2 1,0 2,1 3,2 -1,2 -2,2 -1,4 1,3 2,1 3,2 1,1 1,3 0,4 -1,1 -2,-1 -3,2 -1,2 0,2 1,4 0,1 -2,2 -3,2 -1,-1 -1,-2 -3,-1 -3,1 -1,3 -3,4 0,0 -1,0 -1,0 -1,0 -2,0 -2,0 -1,-2 0,-4 -3,-4 -2,0 -1,1 -3,1 -1,0 -2,-1 -2,-2 0,-2 2,-2 1,-4 -1,-2 -2,-1 -4,-2 -2,-5 2,-4 3,-4 3,-3 0,-4 0,-6 0,-1 1,-2 2,-2 2,0 1,2 4,1 3,-1 -1,-5 5,-4 1,0 1,0 1,2zm1 47c4,2 3,1 4,3 -1,1 -2,0 -2,2 2,1 6,-2 6,-3 1,-1 -3,-5 -4,-6 -1,2 0,2 1,4 -4,0 -10,-6 -12,-10 -2,-3 -5,-10 -4,-13 1,0 2,-2 3,-2l1 3c1,1 6,1 8,0 0,-1 -1,-5 2,-2 0,0 1,1 1,1 2,-1 3,-2 5,-4 2,-2 -1,-3 -1,-5 2,0 1,0 3,0 1,-1 1,-7 0,-8 -1,0 -2,0 -3,0 -1,-2 1,-2 1,-4 0,-1 -4,-5 -5,-5 -1,0 -1,2 -3,2 0,-1 0,-1 0,-2 0,-1 0,-1 0,-1 -1,-2 -8,-1 -8,-1 -1,2 0,2 -1,4 -2,0 -2,-3 -5,-1 -1,1 -3,3 -3,4 0,2 2,2 2,4 -2,0 -2,0 -4,0 0,1 0,7 0,8l4 0c0,1 0,1 -1,2 -2,2 0,3 2,5 1,1 0,3 1,6 0,2 0,3 1,5 0,2 1,3 1,5l3 3c1,2 4,4 5,5 1,1 1,1 2,1z"/>
   <path class="fil0" d="M44 39c3,-1 6,2 7,5 0,2 0,3 -1,5 -1,1 -3,2 -4,2 -7,1 -11,-10 -2,-12zm-1 -2c-4,1 -8,5 -6,10 1,6 10,9 14,2 3,-3 2,-8 -2,-11 -1,-1 -4,-1 -6,-1z"/>
   <path class="fil0" d="M13 9c8,-2 11,10 3,12 -7,2 -11,-10 -3,-12zm0 -2c-11,2 -7,18 3,16 11,-2 8,-18 -3,-16z"/>
  </g>
 </g>
</svg>
